<mxfile host="app.diagrams.net" agent="Mozilla/5.0 (Macintosh; Intel Mac OS X 10_15_7) AppleWebKit/537.36 (KHTML, like Gecko) Chrome/139.0.0.0 Safari/537.36" version="28.1.2">
  <diagram name="Page-1" id="s_VwHsIHMs_IuYcWGAiX">
    <mxGraphModel dx="1298" dy="830" grid="0" gridSize="10" guides="1" tooltips="1" connect="1" arrows="1" fold="1" page="1" pageScale="1" pageWidth="827" pageHeight="1169" math="0" shadow="0">
      <root>
        <mxCell id="0" />
        <mxCell id="1" parent="0" />
        <mxCell id="oEd-fYuOc-z3h9_5Dd3o-3" style="edgeStyle=orthogonalEdgeStyle;rounded=0;orthogonalLoop=1;jettySize=auto;html=1;entryX=0;entryY=0.5;entryDx=0;entryDy=0;" parent="1" source="oEd-fYuOc-z3h9_5Dd3o-1" target="oEd-fYuOc-z3h9_5Dd3o-2" edge="1">
          <mxGeometry relative="1" as="geometry" />
        </mxCell>
        <mxCell id="oEd-fYuOc-z3h9_5Dd3o-1" value="" style="points=[[0.35,0,0],[0.98,0.51,0],[1,0.71,0],[0.67,1,0],[0,0.795,0],[0,0.65,0]];verticalLabelPosition=bottom;sketch=0;html=1;verticalAlign=top;aspect=fixed;align=center;pointerEvents=1;shape=mxgraph.cisco19.user;fillColor=#000000;strokeColor=none;" parent="1" vertex="1">
          <mxGeometry x="130" y="230" width="50" height="50" as="geometry" />
        </mxCell>
        <mxCell id="oEd-fYuOc-z3h9_5Dd3o-2" value="" style="shape=image;html=1;verticalAlign=top;verticalLabelPosition=bottom;labelBackgroundColor=#ffffff;imageAspect=0;aspect=fixed;image=https://icons.diagrams.net/icon-cache1/Social_Media_Solid-2188/BW_Twitter_glyph_svg-668.svg" parent="1" vertex="1">
          <mxGeometry x="630" y="232.5" width="45" height="45" as="geometry" />
        </mxCell>
        <mxCell id="oEd-fYuOc-z3h9_5Dd3o-6" value="" style="shape=image;html=1;verticalAlign=top;verticalLabelPosition=bottom;labelBackgroundColor=#ffffff;imageAspect=0;aspect=fixed;image=https://icons.diagrams.net/icon-cache1/Social_Media_Solid-2188/BW_Twitter_glyph_svg-668.svg" parent="1" vertex="1">
          <mxGeometry x="581" y="373.75" width="45" height="45" as="geometry" />
        </mxCell>
        <mxCell id="oEd-fYuOc-z3h9_5Dd3o-10" style="edgeStyle=orthogonalEdgeStyle;rounded=0;orthogonalLoop=1;jettySize=auto;html=1;entryX=0;entryY=0.5;entryDx=0;entryDy=0;" parent="1" source="oEd-fYuOc-z3h9_5Dd3o-7" target="oEd-fYuOc-z3h9_5Dd3o-6" edge="1">
          <mxGeometry relative="1" as="geometry" />
        </mxCell>
        <mxCell id="oEd-fYuOc-z3h9_5Dd3o-7" value="" style="sketch=0;aspect=fixed;pointerEvents=1;shadow=0;dashed=0;html=1;strokeColor=none;labelPosition=center;verticalLabelPosition=bottom;verticalAlign=top;align=center;fillColor=light-dark(#0c0c0d, #bfd3ff);shape=mxgraph.azure.queue_generic" parent="1" vertex="1">
          <mxGeometry x="300" y="370" width="175" height="52.5" as="geometry" />
        </mxCell>
        <mxCell id="uRPINlr-18z0hsT52kNe-3" value="Single Request" style="text;html=1;align=center;verticalAlign=middle;resizable=0;points=[];autosize=1;strokeColor=none;fillColor=none;fontFamily=Excalifont;" vertex="1" parent="1">
          <mxGeometry x="336.5" y="221" width="103" height="26" as="geometry" />
        </mxCell>
        <mxCell id="uRPINlr-18z0hsT52kNe-9" value="" style="sketch=0;outlineConnect=0;fontColor=#232F3E;gradientColor=none;fillColor=#232F3D;strokeColor=none;dashed=0;verticalLabelPosition=bottom;verticalAlign=top;align=center;html=1;fontSize=12;fontStyle=0;aspect=fixed;pointerEvents=1;shape=mxgraph.aws4.users;" vertex="1" parent="1">
          <mxGeometry x="138" y="371.25" width="50" height="50" as="geometry" />
        </mxCell>
        <mxCell id="uRPINlr-18z0hsT52kNe-10" style="edgeStyle=orthogonalEdgeStyle;rounded=0;orthogonalLoop=1;jettySize=auto;html=1;entryX=0;entryY=0.5;entryDx=0;entryDy=0;entryPerimeter=0;" edge="1" parent="1" source="uRPINlr-18z0hsT52kNe-9" target="oEd-fYuOc-z3h9_5Dd3o-7">
          <mxGeometry relative="1" as="geometry" />
        </mxCell>
        <mxCell id="uRPINlr-18z0hsT52kNe-11" value="Multiple Parallel Request" style="text;html=1;align=center;verticalAlign=middle;resizable=0;points=[];autosize=1;strokeColor=none;fillColor=none;fontFamily=Excalifont;" vertex="1" parent="1">
          <mxGeometry x="296" y="334" width="160" height="26" as="geometry" />
        </mxCell>
      </root>
    </mxGraphModel>
  </diagram>
</mxfile>
